# xmcd
#
# Track frame offsets:
#	150
#	17316
#	32605
#	49736
#	68742
#	83592
#	101953
#	117502
#	135960
#	150389
#	165609
#
# Disc length: 2428 seconds
#
# Revision: 0
# Processed by: cddbd v1.5.2PL0 Copyright (c) Steve Scherf et al.
# Submitted via: EasyCDDAExtractor 11.0.0.1
#
DISCID=7b097a0b
DTITLE=พั้น - ปรากฎการณ์ธรรมชาติ
DYEAR=1900
DGENRE=
TTITLE0=เพื่อนกันวันสุดท้าย
TTITLE1=ไปถามพี่เบิร์ดเลย
TTITLE2=ผู้เคราะห์ร้าย
TTITLE3=ตะวันที่ปลายอุโมงค์
TTITLE4=ปรากฎการณ์ธรรมชาติ
TTITLE5=สิ่งที่อยู่ข้างใน หัวใจหรือเปล่า
TTITLE6=ลืมฉันไปเสียเถอะ
TTITLE7=คิดถึง(เหมือนกัน)
TTITLE8=ทำไมต้องเป็นอย่างนี้
TTITLE9=ใจถึงก็ถึงใจ
TTITLE10=เส้นทางรัก(เพลงประกอบละครทัดดาวบุษยา)
EXTD=
EXTT0=
EXTT1=
EXTT2=
EXTT3=
EXTT4=
EXTT5=
EXTT6=
EXTT7=
EXTT8=
EXTT9=
EXTT10=
PLAYORDER=
